<?xml version="1.0" standalone="no"?>
<!DOCTYPE svg PUBLIC "-//W3C//DTD SVG 20010904//EN"
 "http://www.w3.org/TR/2001/REC-SVG-20010904/DTD/svg10.dtd">
<svg version="1.0" xmlns="http://www.w3.org/2000/svg"
 width="239.000000pt" height="239.000000pt" viewBox="0 0 239.000000 239.000000"
 preserveAspectRatio="xMidYMid meet">
<metadata>
Created by potrace 1.11, written by Peter Selinger 2001-2013
</metadata>
<g transform="translate(0.000000,239.000000) scale(0.100000,-0.100000)"
fill="#000000" stroke="none">
<path d="M1014 2121 c-85 -39 -115 -149 -62 -229 14 -21 40 -45 57 -52 31 -12
37 -26 56 -115 5 -30 3 -32 -64 -64 -76 -37 -108 -37 -96 2 14 45 17 145 5
182 -25 76 -113 147 -198 161 -61 10 -145 -19 -192 -66 -52 -52 -72 -101 -73
-175 0 -72 24 -125 81 -177 53 -48 100 -62 183 -55 58 5 69 3 85 -14 17 -18
16 -21 -5 -68 -13 -26 -31 -77 -40 -112 -17 -60 -20 -64 -54 -72 -30 -7 -42
-5 -67 13 -34 24 -95 36 -134 26 -39 -10 -85 -54 -97 -96 -17 -55 -4 -104 36
-145 59 -58 138 -59 204 0 36 32 88 50 107 37 6 -4 18 -27 28 -51 9 -24 30
-63 46 -87 17 -23 30 -45 30 -48 0 -3 -27 -6 -60 -6 -69 0 -106 -16 -144 -60
-38 -46 -52 -101 -37 -150 16 -53 63 -106 108 -121 48 -16 124 -7 161 19 39
28 72 97 72 149 0 53 19 70 60 53 37 -15 50 -37 50 -85 0 -52 34 -111 82 -142
57 -38 147 -40 200 -4 58 40 81 84 87 163 l6 70 58 41 c52 36 59 39 73 25 13
-12 13 -22 4 -60 -38 -151 126 -286 273 -225 45 19 105 89 113 132 26 138 -60
245 -200 251 -47 1 -63 7 -83 27 l-25 25 17 48 c28 74 28 74 109 67 61 -5 78
-2 114 16 23 12 54 39 68 61 104 158 -58 348 -231 271 -26 -11 -55 -21 -64
-21 -10 0 -36 26 -60 58 -48 66 -49 87 -3 161 29 47 35 52 97 71 106 33 162
147 120 247 -30 72 -93 113 -170 113 -138 0 -213 -114 -173 -263 10 -40 9 -47
-17 -91 -38 -64 -54 -70 -145 -54 l-75 14 -19 73 -19 72 23 40 c32 58 25 137
-16 180 -55 59 -118 72 -190 40z m433 -552 c15 -15 5 -39 -17 -39 -22 0 -32
24 -17 39 6 6 14 11 17 11 3 0 11 -5 17 -11z m-358 -115 c81 -57 40 -194 -59
-194 -67 0 -117 69 -99 135 18 66 103 97 158 59z m229 -7 c4 -20 -25 -34 -40
-19 -15 15 -1 44 19 40 10 -2 19 -11 21 -21z m216 -68 c36 -17 60 -68 52 -111
-8 -46 -45 -78 -95 -85 -36 -5 -44 -2 -76 30 -29 29 -35 42 -35 77 0 78 78
123 154 89z m214 -62 c4 -20 -25 -34 -40 -19 -15 15 -1 44 19 40 10 -2 19 -11
21 -21z m-720 -190 c4 -20 -25 -34 -40 -19 -15 15 -1 44 19 40 10 -2 19 -11
21 -21z m309 -5 c63 -45 83 -149 40 -212 -65 -98 -198 -97 -267 0 -38 54 -25
155 27 202 48 44 146 48 200 10z m221 -75 c4 -20 -25 -34 -40 -19 -15 15 -1
44 19 40 10 -2 19 -11 21 -21z"/>
</g>
</svg>
